<mxfile host="app.diagrams.net" modified="2023-11-25T05:49:17.160Z" agent="Mozilla/5.0 (Windows NT 10.0; Win64; x64) AppleWebKit/537.36 (KHTML, like Gecko) Chrome/119.0.0.0 Safari/537.36 Edg/119.0.0.0" etag="D-KlnXVGbABt6IKOet3O" version="22.1.3" type="device">
  <diagram name="Page-1" id="MXD_2sZdMuttcUZYfdfR">
    <mxGraphModel dx="2274" dy="749" grid="1" gridSize="10" guides="1" tooltips="1" connect="1" arrows="1" fold="1" page="1" pageScale="1" pageWidth="850" pageHeight="1100" math="0" shadow="0">
      <root>
        <mxCell id="0" />
        <mxCell id="1" parent="0" />
        <mxCell id="hPIlpmBQcfsdDrHTi6k_-2" value="Admin" style="rounded=0;whiteSpace=wrap;html=1;" parent="1" vertex="1">
          <mxGeometry x="-600" y="710" width="120" height="60" as="geometry" />
        </mxCell>
        <mxCell id="hPIlpmBQcfsdDrHTi6k_-3" value="Staff" style="rounded=0;whiteSpace=wrap;html=1;" parent="1" vertex="1">
          <mxGeometry x="-460" y="710" width="120" height="60" as="geometry" />
        </mxCell>
        <mxCell id="hPIlpmBQcfsdDrHTi6k_-36" value="PHONG" style="swimlane;fontStyle=0;childLayout=stackLayout;horizontal=1;startSize=30;horizontalStack=0;resizeParent=1;resizeParentMax=0;resizeLast=0;collapsible=1;marginBottom=0;whiteSpace=wrap;html=1;" parent="1" vertex="1">
          <mxGeometry x="300" y="860" width="140" height="100" as="geometry" />
        </mxCell>
        <mxCell id="hulPOUBpisHzdd72-WVo-17" value="&lt;u style=&quot;border-color: var(--border-color); text-align: left;&quot;&gt;ID_PHONG&lt;/u&gt;" style="shape=ext;margin=3;double=1;whiteSpace=wrap;html=1;align=center;" vertex="1" parent="hPIlpmBQcfsdDrHTi6k_-36">
          <mxGeometry y="30" width="140" height="40" as="geometry" />
        </mxCell>
        <mxCell id="hPIlpmBQcfsdDrHTi6k_-38" value="TenPhong" style="text;strokeColor=none;fillColor=none;align=left;verticalAlign=middle;spacingLeft=4;spacingRight=4;overflow=hidden;points=[[0,0.5],[1,0.5]];portConstraint=eastwest;rotatable=0;whiteSpace=wrap;html=1;" parent="hPIlpmBQcfsdDrHTi6k_-36" vertex="1">
          <mxGeometry y="70" width="140" height="30" as="geometry" />
        </mxCell>
        <mxCell id="hPIlpmBQcfsdDrHTi6k_-44" value="Tooth" style="swimlane;fontStyle=0;childLayout=stackLayout;horizontal=1;startSize=30;horizontalStack=0;resizeParent=1;resizeParentMax=0;resizeLast=0;collapsible=1;marginBottom=0;whiteSpace=wrap;html=1;" parent="1" vertex="1">
          <mxGeometry x="290" y="1610" width="140" height="90" as="geometry" />
        </mxCell>
        <mxCell id="hPIlpmBQcfsdDrHTi6k_-45" value="&lt;u&gt;+ToothID&lt;/u&gt;" style="text;strokeColor=none;fillColor=none;align=left;verticalAlign=middle;spacingLeft=4;spacingRight=4;overflow=hidden;points=[[0,0.5],[1,0.5]];portConstraint=eastwest;rotatable=0;whiteSpace=wrap;html=1;" parent="hPIlpmBQcfsdDrHTi6k_-44" vertex="1">
          <mxGeometry y="30" width="140" height="30" as="geometry" />
        </mxCell>
        <mxCell id="hPIlpmBQcfsdDrHTi6k_-46" value="+ToodName" style="text;strokeColor=none;fillColor=none;align=left;verticalAlign=middle;spacingLeft=4;spacingRight=4;overflow=hidden;points=[[0,0.5],[1,0.5]];portConstraint=eastwest;rotatable=0;whiteSpace=wrap;html=1;" parent="hPIlpmBQcfsdDrHTi6k_-44" vertex="1">
          <mxGeometry y="60" width="140" height="30" as="geometry" />
        </mxCell>
        <mxCell id="hPIlpmBQcfsdDrHTi6k_-53" value="d" style="ellipse;whiteSpace=wrap;html=1;aspect=fixed;" parent="1" vertex="1">
          <mxGeometry x="-420" y="640" width="40" height="40" as="geometry" />
        </mxCell>
        <mxCell id="GEYulCbKB13epgW0hpOW-29" value="SystemUser" style="swimlane;fontStyle=0;childLayout=stackLayout;horizontal=1;startSize=26;fillColor=none;horizontalStack=0;resizeParent=1;resizeParentMax=0;resizeLast=0;collapsible=1;marginBottom=0;whiteSpace=wrap;html=1;" parent="1" vertex="1">
          <mxGeometry x="-460" y="350" width="140" height="242" as="geometry" />
        </mxCell>
        <mxCell id="GEYulCbKB13epgW0hpOW-30" value="+ UserID" style="text;strokeColor=none;fillColor=none;align=left;verticalAlign=top;spacingLeft=4;spacingRight=4;overflow=hidden;rotatable=0;points=[[0,0.5],[1,0.5]];portConstraint=eastwest;whiteSpace=wrap;html=1;" parent="GEYulCbKB13epgW0hpOW-29" vertex="1">
          <mxGeometry y="26" width="140" height="26" as="geometry" />
        </mxCell>
        <mxCell id="GEYulCbKB13epgW0hpOW-31" value="+ Username" style="text;strokeColor=none;fillColor=none;align=left;verticalAlign=top;spacingLeft=4;spacingRight=4;overflow=hidden;rotatable=0;points=[[0,0.5],[1,0.5]];portConstraint=eastwest;whiteSpace=wrap;html=1;" parent="GEYulCbKB13epgW0hpOW-29" vertex="1">
          <mxGeometry y="52" width="140" height="26" as="geometry" />
        </mxCell>
        <mxCell id="GEYulCbKB13epgW0hpOW-32" value="+ Password" style="text;strokeColor=none;fillColor=none;align=left;verticalAlign=top;spacingLeft=4;spacingRight=4;overflow=hidden;rotatable=0;points=[[0,0.5],[1,0.5]];portConstraint=eastwest;whiteSpace=wrap;html=1;" parent="GEYulCbKB13epgW0hpOW-29" vertex="1">
          <mxGeometry y="78" width="140" height="26" as="geometry" />
        </mxCell>
        <mxCell id="GEYulCbKB13epgW0hpOW-34" value="+ SysUserName" style="text;strokeColor=none;fillColor=none;align=left;verticalAlign=top;spacingLeft=4;spacingRight=4;overflow=hidden;rotatable=0;points=[[0,0.5],[1,0.5]];portConstraint=eastwest;whiteSpace=wrap;html=1;" parent="GEYulCbKB13epgW0hpOW-29" vertex="1">
          <mxGeometry y="104" width="140" height="26" as="geometry" />
        </mxCell>
        <mxCell id="hulPOUBpisHzdd72-WVo-33" value="+ DiaChiNV" style="text;strokeColor=none;fillColor=none;align=left;verticalAlign=middle;spacingLeft=4;spacingRight=4;overflow=hidden;points=[[0,0.5],[1,0.5]];portConstraint=eastwest;rotatable=0;whiteSpace=wrap;html=1;" vertex="1" parent="GEYulCbKB13epgW0hpOW-29">
          <mxGeometry y="130" width="140" height="30" as="geometry" />
        </mxCell>
        <mxCell id="GEYulCbKB13epgW0hpOW-35" value="+ SysUserGender" style="text;strokeColor=none;fillColor=none;align=left;verticalAlign=top;spacingLeft=4;spacingRight=4;overflow=hidden;rotatable=0;points=[[0,0.5],[1,0.5]];portConstraint=eastwest;whiteSpace=wrap;html=1;" parent="GEYulCbKB13epgW0hpOW-29" vertex="1">
          <mxGeometry y="160" width="140" height="26" as="geometry" />
        </mxCell>
        <mxCell id="hulPOUBpisHzdd72-WVo-34" value="+ Luong" style="text;strokeColor=none;fillColor=none;align=left;verticalAlign=middle;spacingLeft=4;spacingRight=4;overflow=hidden;points=[[0,0.5],[1,0.5]];portConstraint=eastwest;rotatable=0;whiteSpace=wrap;html=1;" vertex="1" parent="GEYulCbKB13epgW0hpOW-29">
          <mxGeometry y="186" width="140" height="30" as="geometry" />
        </mxCell>
        <mxCell id="GEYulCbKB13epgW0hpOW-36" value="+ SysUserDob" style="text;strokeColor=none;fillColor=none;align=left;verticalAlign=top;spacingLeft=4;spacingRight=4;overflow=hidden;rotatable=0;points=[[0,0.5],[1,0.5]];portConstraint=eastwest;whiteSpace=wrap;html=1;" parent="GEYulCbKB13epgW0hpOW-29" vertex="1">
          <mxGeometry y="216" width="140" height="26" as="geometry" />
        </mxCell>
        <mxCell id="GEYulCbKB13epgW0hpOW-48" value="ToothSurface" style="swimlane;fontStyle=0;childLayout=stackLayout;horizontal=1;startSize=26;fillColor=none;horizontalStack=0;resizeParent=1;resizeParentMax=0;resizeLast=0;collapsible=1;marginBottom=0;whiteSpace=wrap;html=1;rounded=1;" parent="1" vertex="1">
          <mxGeometry x="425" y="1500" width="140" height="104" as="geometry" />
        </mxCell>
        <mxCell id="GEYulCbKB13epgW0hpOW-49" value="&lt;u&gt;+SurfaceID&lt;/u&gt;" style="text;strokeColor=none;fillColor=none;align=left;verticalAlign=top;spacingLeft=4;spacingRight=4;overflow=hidden;rotatable=0;points=[[0,0.5],[1,0.5]];portConstraint=eastwest;whiteSpace=wrap;html=1;" parent="GEYulCbKB13epgW0hpOW-48" vertex="1">
          <mxGeometry y="26" width="140" height="26" as="geometry" />
        </mxCell>
        <mxCell id="GEYulCbKB13epgW0hpOW-50" value="+SurefaceName" style="text;strokeColor=none;fillColor=none;align=left;verticalAlign=top;spacingLeft=4;spacingRight=4;overflow=hidden;rotatable=0;points=[[0,0.5],[1,0.5]];portConstraint=eastwest;whiteSpace=wrap;html=1;" parent="GEYulCbKB13epgW0hpOW-48" vertex="1">
          <mxGeometry y="52" width="140" height="26" as="geometry" />
        </mxCell>
        <mxCell id="GEYulCbKB13epgW0hpOW-51" value="+SurfaceDescription" style="text;strokeColor=none;fillColor=none;align=left;verticalAlign=top;spacingLeft=4;spacingRight=4;overflow=hidden;rotatable=0;points=[[0,0.5],[1,0.5]];portConstraint=eastwest;whiteSpace=wrap;html=1;" parent="GEYulCbKB13epgW0hpOW-48" vertex="1">
          <mxGeometry y="78" width="140" height="26" as="geometry" />
        </mxCell>
        <mxCell id="GEYulCbKB13epgW0hpOW-55" value="" style="endArrow=none;html=1;rounded=0;exitX=0.5;exitY=0;exitDx=0;exitDy=0;entryX=0;entryY=1;entryDx=0;entryDy=0;" parent="1" source="hPIlpmBQcfsdDrHTi6k_-2" target="hPIlpmBQcfsdDrHTi6k_-53" edge="1">
          <mxGeometry width="50" height="50" relative="1" as="geometry">
            <mxPoint x="-550" y="700" as="sourcePoint" />
            <mxPoint x="-500" y="650" as="targetPoint" />
          </mxGeometry>
        </mxCell>
        <mxCell id="GEYulCbKB13epgW0hpOW-56" value="" style="endArrow=none;html=1;rounded=0;exitX=0.5;exitY=0;exitDx=0;exitDy=0;entryX=0.5;entryY=1;entryDx=0;entryDy=0;" parent="1" source="hPIlpmBQcfsdDrHTi6k_-3" target="hPIlpmBQcfsdDrHTi6k_-53" edge="1">
          <mxGeometry width="50" height="50" relative="1" as="geometry">
            <mxPoint x="-250" y="710" as="sourcePoint" />
            <mxPoint x="-200" y="660" as="targetPoint" />
          </mxGeometry>
        </mxCell>
        <mxCell id="GEYulCbKB13epgW0hpOW-57" value="" style="endArrow=none;html=1;rounded=0;entryX=1;entryY=1;entryDx=0;entryDy=0;exitX=0.634;exitY=-0.026;exitDx=0;exitDy=0;exitPerimeter=0;" parent="1" source="hulPOUBpisHzdd72-WVo-29" target="hPIlpmBQcfsdDrHTi6k_-53" edge="1">
          <mxGeometry width="50" height="50" relative="1" as="geometry">
            <mxPoint x="-260" y="710" as="sourcePoint" />
            <mxPoint x="-220" y="650" as="targetPoint" />
          </mxGeometry>
        </mxCell>
        <mxCell id="GEYulCbKB13epgW0hpOW-58" value="" style="endArrow=none;html=1;rounded=0;entryX=0.45;entryY=0.999;entryDx=0;entryDy=0;entryPerimeter=0;exitX=0.371;exitY=0.005;exitDx=0;exitDy=0;exitPerimeter=0;" parent="1" source="hPIlpmBQcfsdDrHTi6k_-53" target="GEYulCbKB13epgW0hpOW-36" edge="1">
          <mxGeometry width="50" height="50" relative="1" as="geometry">
            <mxPoint x="-540" y="700" as="sourcePoint" />
            <mxPoint x="-490" y="650" as="targetPoint" />
          </mxGeometry>
        </mxCell>
        <mxCell id="GEYulCbKB13epgW0hpOW-59" value="" style="endArrow=none;html=1;rounded=0;exitX=0.594;exitY=-0.006;exitDx=0;exitDy=0;exitPerimeter=0;entryX=0.525;entryY=0.963;entryDx=0;entryDy=0;entryPerimeter=0;" parent="1" source="hPIlpmBQcfsdDrHTi6k_-53" target="GEYulCbKB13epgW0hpOW-36" edge="1">
          <mxGeometry width="50" height="50" relative="1" as="geometry">
            <mxPoint x="-390" y="680" as="sourcePoint" />
            <mxPoint x="-340" y="630" as="targetPoint" />
          </mxGeometry>
        </mxCell>
        <mxCell id="GEYulCbKB13epgW0hpOW-67" value="Amount" style="rounded=1;whiteSpace=wrap;html=1;" parent="1" vertex="1">
          <mxGeometry x="-180" y="1390" width="120" height="60" as="geometry" />
        </mxCell>
        <mxCell id="GEYulCbKB13epgW0hpOW-70" value="" style="endArrow=none;dashed=1;html=1;rounded=0;entryX=1;entryY=0.25;entryDx=0;entryDy=0;exitX=0.5;exitY=1;exitDx=0;exitDy=0;" parent="1" target="GEYulCbKB13epgW0hpOW-67" edge="1" source="hulPOUBpisHzdd72-WVo-105">
          <mxGeometry width="50" height="50" relative="1" as="geometry">
            <mxPoint x="-30" y="1240" as="sourcePoint" />
            <mxPoint x="-200" y="1668" as="targetPoint" />
          </mxGeometry>
        </mxCell>
        <mxCell id="GEYulCbKB13epgW0hpOW-71" value="" style="endArrow=ERzeroToMany;html=1;rounded=0;entryX=0.462;entryY=1.209;entryDx=0;entryDy=0;entryPerimeter=0;exitX=0.5;exitY=0;exitDx=0;exitDy=0;startArrow=ERoneToMany;startFill=0;endFill=0;" parent="1" source="hPIlpmBQcfsdDrHTi6k_-44" target="hulPOUBpisHzdd72-WVo-103" edge="1">
          <mxGeometry width="50" height="50" relative="1" as="geometry">
            <mxPoint x="630" y="600" as="sourcePoint" />
            <mxPoint x="680" y="550" as="targetPoint" />
          </mxGeometry>
        </mxCell>
        <mxCell id="GEYulCbKB13epgW0hpOW-72" value="" style="endArrow=none;dashed=1;html=1;rounded=0;entryX=0;entryY=0.5;entryDx=0;entryDy=0;" parent="1" target="GEYulCbKB13epgW0hpOW-49" edge="1">
          <mxGeometry width="50" height="50" relative="1" as="geometry">
            <mxPoint x="360" y="1540" as="sourcePoint" />
            <mxPoint x="250" y="1490" as="targetPoint" />
          </mxGeometry>
        </mxCell>
        <mxCell id="GEYulCbKB13epgW0hpOW-95" value="bao gồm" style="text;html=1;align=center;verticalAlign=middle;resizable=0;points=[];autosize=1;strokeColor=none;fillColor=none;" parent="1" vertex="1">
          <mxGeometry x="295" y="1528" width="70" height="30" as="geometry" />
        </mxCell>
        <mxCell id="hulPOUBpisHzdd72-WVo-5" value="PHONGKHAM" style="swimlane;fontStyle=0;childLayout=stackLayout;horizontal=1;startSize=30;horizontalStack=0;resizeParent=1;resizeParentMax=0;resizeLast=0;collapsible=1;marginBottom=0;whiteSpace=wrap;html=1;" vertex="1" parent="1">
          <mxGeometry x="40" y="840" width="140" height="180" as="geometry" />
        </mxCell>
        <mxCell id="hulPOUBpisHzdd72-WVo-6" value="&lt;u&gt;ID_PK&lt;/u&gt;" style="text;strokeColor=none;fillColor=none;align=left;verticalAlign=middle;spacingLeft=4;spacingRight=4;overflow=hidden;points=[[0,0.5],[1,0.5]];portConstraint=eastwest;rotatable=0;whiteSpace=wrap;html=1;" vertex="1" parent="hulPOUBpisHzdd72-WVo-5">
          <mxGeometry y="30" width="140" height="30" as="geometry" />
        </mxCell>
        <mxCell id="hulPOUBpisHzdd72-WVo-7" value="DiaChiChiNhanh" style="text;strokeColor=none;fillColor=none;align=left;verticalAlign=middle;spacingLeft=4;spacingRight=4;overflow=hidden;points=[[0,0.5],[1,0.5]];portConstraint=eastwest;rotatable=0;whiteSpace=wrap;html=1;" vertex="1" parent="hulPOUBpisHzdd72-WVo-5">
          <mxGeometry y="60" width="140" height="30" as="geometry" />
        </mxCell>
        <mxCell id="hulPOUBpisHzdd72-WVo-8" value="SoNV" style="text;strokeColor=none;fillColor=none;align=left;verticalAlign=middle;spacingLeft=4;spacingRight=4;overflow=hidden;points=[[0,0.5],[1,0.5]];portConstraint=eastwest;rotatable=0;whiteSpace=wrap;html=1;" vertex="1" parent="hulPOUBpisHzdd72-WVo-5">
          <mxGeometry y="90" width="140" height="30" as="geometry" />
        </mxCell>
        <mxCell id="hulPOUBpisHzdd72-WVo-9" value="SoNS" style="text;strokeColor=none;fillColor=none;align=left;verticalAlign=middle;spacingLeft=4;spacingRight=4;overflow=hidden;points=[[0,0.5],[1,0.5]];portConstraint=eastwest;rotatable=0;whiteSpace=wrap;html=1;" vertex="1" parent="hulPOUBpisHzdd72-WVo-5">
          <mxGeometry y="120" width="140" height="30" as="geometry" />
        </mxCell>
        <mxCell id="hulPOUBpisHzdd72-WVo-77" value="SoDV" style="text;strokeColor=none;fillColor=none;align=left;verticalAlign=middle;spacingLeft=4;spacingRight=4;overflow=hidden;points=[[0,0.5],[1,0.5]];portConstraint=eastwest;rotatable=0;whiteSpace=wrap;html=1;" vertex="1" parent="hulPOUBpisHzdd72-WVo-5">
          <mxGeometry y="150" width="140" height="30" as="geometry" />
        </mxCell>
        <mxCell id="hulPOUBpisHzdd72-WVo-11" value="" style="edgeStyle=entityRelationEdgeStyle;fontSize=12;html=1;endArrow=ERoneToMany;startArrow=ERmandOne;rounded=0;entryX=0;entryY=0.25;entryDx=0;entryDy=0;exitX=1.022;exitY=0.252;exitDx=0;exitDy=0;exitPerimeter=0;" edge="1" parent="1" source="hulPOUBpisHzdd72-WVo-8" target="hPIlpmBQcfsdDrHTi6k_-36">
          <mxGeometry width="100" height="100" relative="1" as="geometry">
            <mxPoint x="210" y="810" as="sourcePoint" />
            <mxPoint x="310" y="710" as="targetPoint" />
          </mxGeometry>
        </mxCell>
        <mxCell id="hulPOUBpisHzdd72-WVo-12" value="Bao gồm" style="text;html=1;strokeColor=none;fillColor=none;align=center;verticalAlign=middle;whiteSpace=wrap;rounded=0;" vertex="1" parent="1">
          <mxGeometry x="200" y="890" width="60" height="30" as="geometry" />
        </mxCell>
        <mxCell id="hulPOUBpisHzdd72-WVo-13" value="DICHVU" style="swimlane;fontStyle=0;childLayout=stackLayout;horizontal=1;startSize=30;horizontalStack=0;resizeParent=1;resizeParentMax=0;resizeLast=0;collapsible=1;marginBottom=0;whiteSpace=wrap;html=1;" vertex="1" parent="1">
          <mxGeometry x="300" y="1010" width="140" height="90" as="geometry" />
        </mxCell>
        <mxCell id="hulPOUBpisHzdd72-WVo-14" value="&lt;u&gt;ID_DV&lt;/u&gt;" style="text;strokeColor=none;fillColor=none;align=left;verticalAlign=middle;spacingLeft=4;spacingRight=4;overflow=hidden;points=[[0,0.5],[1,0.5]];portConstraint=eastwest;rotatable=0;whiteSpace=wrap;html=1;" vertex="1" parent="hulPOUBpisHzdd72-WVo-13">
          <mxGeometry y="30" width="140" height="30" as="geometry" />
        </mxCell>
        <mxCell id="hulPOUBpisHzdd72-WVo-15" value="TenLoaiDV" style="text;strokeColor=none;fillColor=none;align=left;verticalAlign=middle;spacingLeft=4;spacingRight=4;overflow=hidden;points=[[0,0.5],[1,0.5]];portConstraint=eastwest;rotatable=0;whiteSpace=wrap;html=1;" vertex="1" parent="hulPOUBpisHzdd72-WVo-13">
          <mxGeometry y="60" width="140" height="30" as="geometry" />
        </mxCell>
        <mxCell id="hulPOUBpisHzdd72-WVo-21" value="" style="edgeStyle=entityRelationEdgeStyle;fontSize=12;html=1;endArrow=ERoneToMany;startArrow=ERzeroToMany;rounded=0;exitX=1;exitY=0.5;exitDx=0;exitDy=0;entryX=0;entryY=0;entryDx=0;entryDy=0;" edge="1" parent="1" source="hulPOUBpisHzdd72-WVo-9" target="hulPOUBpisHzdd72-WVo-13">
          <mxGeometry width="100" height="100" relative="1" as="geometry">
            <mxPoint x="580" y="1060" as="sourcePoint" />
            <mxPoint x="680" y="960" as="targetPoint" />
          </mxGeometry>
        </mxCell>
        <mxCell id="hulPOUBpisHzdd72-WVo-22" value="Thuộc" style="text;html=1;strokeColor=none;fillColor=none;align=center;verticalAlign=middle;whiteSpace=wrap;rounded=0;" vertex="1" parent="1">
          <mxGeometry x="220" y="970" width="60" height="30" as="geometry" />
        </mxCell>
        <mxCell id="hulPOUBpisHzdd72-WVo-23" value="CHITIETDICHVU" style="swimlane;fontStyle=0;childLayout=stackLayout;horizontal=1;startSize=30;horizontalStack=0;resizeParent=1;resizeParentMax=0;resizeLast=0;collapsible=1;marginBottom=0;whiteSpace=wrap;html=1;" vertex="1" parent="1">
          <mxGeometry x="40" y="1100" width="140" height="120" as="geometry" />
        </mxCell>
        <mxCell id="hulPOUBpisHzdd72-WVo-24" value="&lt;u&gt;ID_CTDV&lt;/u&gt;" style="text;strokeColor=none;fillColor=none;align=left;verticalAlign=middle;spacingLeft=4;spacingRight=4;overflow=hidden;points=[[0,0.5],[1,0.5]];portConstraint=eastwest;rotatable=0;whiteSpace=wrap;html=1;" vertex="1" parent="hulPOUBpisHzdd72-WVo-23">
          <mxGeometry y="30" width="140" height="30" as="geometry" />
        </mxCell>
        <mxCell id="hulPOUBpisHzdd72-WVo-25" value="TenDV" style="text;strokeColor=none;fillColor=none;align=left;verticalAlign=middle;spacingLeft=4;spacingRight=4;overflow=hidden;points=[[0,0.5],[1,0.5]];portConstraint=eastwest;rotatable=0;whiteSpace=wrap;html=1;" vertex="1" parent="hulPOUBpisHzdd72-WVo-23">
          <mxGeometry y="60" width="140" height="30" as="geometry" />
        </mxCell>
        <mxCell id="hulPOUBpisHzdd72-WVo-26" value="GiaDV" style="text;strokeColor=none;fillColor=none;align=left;verticalAlign=middle;spacingLeft=4;spacingRight=4;overflow=hidden;points=[[0,0.5],[1,0.5]];portConstraint=eastwest;rotatable=0;whiteSpace=wrap;html=1;" vertex="1" parent="hulPOUBpisHzdd72-WVo-23">
          <mxGeometry y="90" width="140" height="30" as="geometry" />
        </mxCell>
        <mxCell id="hulPOUBpisHzdd72-WVo-27" value="" style="edgeStyle=entityRelationEdgeStyle;fontSize=12;html=1;endArrow=ERoneToMany;startArrow=ERmandOne;rounded=0;entryX=1.001;entryY=0.102;entryDx=0;entryDy=0;exitX=0;exitY=0.25;exitDx=0;exitDy=0;entryPerimeter=0;" edge="1" parent="1" source="hulPOUBpisHzdd72-WVo-13" target="hulPOUBpisHzdd72-WVo-23">
          <mxGeometry width="100" height="100" relative="1" as="geometry">
            <mxPoint x="530" y="902.5" as="sourcePoint" />
            <mxPoint x="650" y="927.5" as="targetPoint" />
          </mxGeometry>
        </mxCell>
        <mxCell id="hulPOUBpisHzdd72-WVo-28" value="Bao gồm" style="text;html=1;strokeColor=none;fillColor=none;align=center;verticalAlign=middle;whiteSpace=wrap;rounded=0;" vertex="1" parent="1">
          <mxGeometry x="190" y="1040" width="60" height="30" as="geometry" />
        </mxCell>
        <mxCell id="hulPOUBpisHzdd72-WVo-29" value="NHASI" style="swimlane;fontStyle=0;childLayout=stackLayout;horizontal=1;startSize=30;horizontalStack=0;resizeParent=1;resizeParentMax=0;resizeLast=0;collapsible=1;marginBottom=0;whiteSpace=wrap;html=1;" vertex="1" parent="1">
          <mxGeometry x="-220" y="840" width="140" height="60" as="geometry" />
        </mxCell>
        <mxCell id="hulPOUBpisHzdd72-WVo-35" value="" style="edgeStyle=entityRelationEdgeStyle;fontSize=12;html=1;endArrow=ERoneToMany;startArrow=ERmandOne;rounded=0;exitX=-0.021;exitY=0.087;exitDx=0;exitDy=0;exitPerimeter=0;entryX=1;entryY=0.5;entryDx=0;entryDy=0;" edge="1" parent="1" source="hulPOUBpisHzdd72-WVo-5" target="hulPOUBpisHzdd72-WVo-29">
          <mxGeometry width="100" height="100" relative="1" as="geometry">
            <mxPoint x="-80" y="760" as="sourcePoint" />
            <mxPoint x="-80" y="885" as="targetPoint" />
          </mxGeometry>
        </mxCell>
        <mxCell id="hulPOUBpisHzdd72-WVo-36" value="bao gồm" style="text;html=1;strokeColor=none;fillColor=none;align=center;verticalAlign=middle;whiteSpace=wrap;rounded=0;" vertex="1" parent="1">
          <mxGeometry x="-170" y="770" width="60" height="30" as="geometry" />
        </mxCell>
        <mxCell id="hulPOUBpisHzdd72-WVo-37" value="THUOC" style="swimlane;fontStyle=0;childLayout=stackLayout;horizontal=1;startSize=30;horizontalStack=0;resizeParent=1;resizeParentMax=0;resizeLast=0;collapsible=1;marginBottom=0;whiteSpace=wrap;html=1;" vertex="1" parent="1">
          <mxGeometry x="-220" y="1080" width="140" height="180" as="geometry" />
        </mxCell>
        <mxCell id="hulPOUBpisHzdd72-WVo-38" value="&lt;u&gt;ID_Thuoc&lt;/u&gt;" style="text;strokeColor=none;fillColor=none;align=left;verticalAlign=middle;spacingLeft=4;spacingRight=4;overflow=hidden;points=[[0,0.5],[1,0.5]];portConstraint=eastwest;rotatable=0;whiteSpace=wrap;html=1;" vertex="1" parent="hulPOUBpisHzdd72-WVo-37">
          <mxGeometry y="30" width="140" height="30" as="geometry" />
        </mxCell>
        <mxCell id="hulPOUBpisHzdd72-WVo-39" value="TenThuoc" style="text;strokeColor=none;fillColor=none;align=left;verticalAlign=middle;spacingLeft=4;spacingRight=4;overflow=hidden;points=[[0,0.5],[1,0.5]];portConstraint=eastwest;rotatable=0;whiteSpace=wrap;html=1;" vertex="1" parent="hulPOUBpisHzdd72-WVo-37">
          <mxGeometry y="60" width="140" height="30" as="geometry" />
        </mxCell>
        <mxCell id="hulPOUBpisHzdd72-WVo-40" value="SoLuongTon" style="text;strokeColor=none;fillColor=none;align=left;verticalAlign=middle;spacingLeft=4;spacingRight=4;overflow=hidden;points=[[0,0.5],[1,0.5]];portConstraint=eastwest;rotatable=0;whiteSpace=wrap;html=1;" vertex="1" parent="hulPOUBpisHzdd72-WVo-37">
          <mxGeometry y="90" width="140" height="30" as="geometry" />
        </mxCell>
        <mxCell id="hulPOUBpisHzdd72-WVo-41" value="GiaBan" style="text;strokeColor=none;fillColor=none;align=left;verticalAlign=middle;spacingLeft=4;spacingRight=4;overflow=hidden;points=[[0,0.5],[1,0.5]];portConstraint=eastwest;rotatable=0;whiteSpace=wrap;html=1;" vertex="1" parent="hulPOUBpisHzdd72-WVo-37">
          <mxGeometry y="120" width="140" height="30" as="geometry" />
        </mxCell>
        <mxCell id="hulPOUBpisHzdd72-WVo-42" value="DonVi" style="text;strokeColor=none;fillColor=none;align=left;verticalAlign=middle;spacingLeft=4;spacingRight=4;overflow=hidden;points=[[0,0.5],[1,0.5]];portConstraint=eastwest;rotatable=0;whiteSpace=wrap;html=1;" vertex="1" parent="hulPOUBpisHzdd72-WVo-37">
          <mxGeometry y="150" width="140" height="30" as="geometry" />
        </mxCell>
        <mxCell id="hulPOUBpisHzdd72-WVo-45" value="Có" style="text;html=1;strokeColor=none;fillColor=none;align=center;verticalAlign=middle;whiteSpace=wrap;rounded=0;" vertex="1" parent="1">
          <mxGeometry x="-60" y="1000" width="60" height="30" as="geometry" />
        </mxCell>
        <mxCell id="hulPOUBpisHzdd72-WVo-46" value="" style="edgeStyle=entityRelationEdgeStyle;fontSize=12;html=1;endArrow=ERoneToMany;startArrow=ERzeroToMany;rounded=0;entryX=1.018;entryY=0.099;entryDx=0;entryDy=0;entryPerimeter=0;exitX=-0.019;exitY=1.188;exitDx=0;exitDy=0;exitPerimeter=0;" edge="1" parent="1" source="hulPOUBpisHzdd72-WVo-8" target="hulPOUBpisHzdd72-WVo-37">
          <mxGeometry width="100" height="100" relative="1" as="geometry">
            <mxPoint x="50" y="1240" as="sourcePoint" />
            <mxPoint x="10" y="1120" as="targetPoint" />
          </mxGeometry>
        </mxCell>
        <mxCell id="hulPOUBpisHzdd72-WVo-47" value="LICHLAMVIEC" style="swimlane;fontStyle=0;childLayout=stackLayout;horizontal=1;startSize=30;horizontalStack=0;resizeParent=1;resizeParentMax=0;resizeLast=0;collapsible=1;marginBottom=0;whiteSpace=wrap;html=1;" vertex="1" parent="1">
          <mxGeometry x="-460" y="840" width="140" height="70" as="geometry" />
        </mxCell>
        <mxCell id="hulPOUBpisHzdd72-WVo-52" value="ThoiGianLamViec" style="shape=ext;margin=3;double=1;whiteSpace=wrap;html=1;align=center;" vertex="1" parent="hulPOUBpisHzdd72-WVo-47">
          <mxGeometry y="30" width="140" height="40" as="geometry" />
        </mxCell>
        <mxCell id="hulPOUBpisHzdd72-WVo-51" value="" style="edgeStyle=entityRelationEdgeStyle;fontSize=12;html=1;endArrow=ERmandOne;startArrow=ERmandOne;rounded=0;entryX=-0.019;entryY=0.117;entryDx=0;entryDy=0;entryPerimeter=0;exitX=1.015;exitY=0.175;exitDx=0;exitDy=0;exitPerimeter=0;" edge="1" parent="1" source="hulPOUBpisHzdd72-WVo-47" target="hulPOUBpisHzdd72-WVo-29">
          <mxGeometry width="100" height="100" relative="1" as="geometry">
            <mxPoint x="-310" y="1120" as="sourcePoint" />
            <mxPoint x="-210" y="1020" as="targetPoint" />
          </mxGeometry>
        </mxCell>
        <mxCell id="hulPOUBpisHzdd72-WVo-53" value="&lt;span style=&quot;color: rgb(0, 0, 0); font-family: Helvetica; font-size: 12px; font-style: normal; font-variant-ligatures: normal; font-variant-caps: normal; font-weight: 400; letter-spacing: normal; orphans: 2; text-align: center; text-indent: 0px; text-transform: none; widows: 2; word-spacing: 0px; -webkit-text-stroke-width: 0px; background-color: rgb(251, 251, 251); text-decoration-thickness: initial; text-decoration-style: initial; text-decoration-color: initial; float: none; display: inline !important;&quot;&gt;Thuộc&lt;/span&gt;" style="text;whiteSpace=wrap;html=1;" vertex="1" parent="1">
          <mxGeometry x="-290" y="830" width="50" height="40" as="geometry" />
        </mxCell>
        <mxCell id="hulPOUBpisHzdd72-WVo-54" value="HOSOBENHNHAN" style="swimlane;fontStyle=0;childLayout=stackLayout;horizontal=1;startSize=30;horizontalStack=0;resizeParent=1;resizeParentMax=0;resizeLast=0;collapsible=1;marginBottom=0;whiteSpace=wrap;html=1;" vertex="1" parent="1">
          <mxGeometry x="600" y="1230" width="140" height="300" as="geometry" />
        </mxCell>
        <mxCell id="hulPOUBpisHzdd72-WVo-63" value="&lt;u&gt;ID_BN&lt;/u&gt;" style="text;strokeColor=none;fillColor=none;align=left;verticalAlign=middle;spacingLeft=4;spacingRight=4;overflow=hidden;points=[[0,0.5],[1,0.5]];portConstraint=eastwest;rotatable=0;whiteSpace=wrap;html=1;" vertex="1" parent="hulPOUBpisHzdd72-WVo-54">
          <mxGeometry y="30" width="140" height="30" as="geometry" />
        </mxCell>
        <mxCell id="hulPOUBpisHzdd72-WVo-55" value="TenBenhNhan" style="text;strokeColor=none;fillColor=none;align=left;verticalAlign=middle;spacingLeft=4;spacingRight=4;overflow=hidden;points=[[0,0.5],[1,0.5]];portConstraint=eastwest;rotatable=0;whiteSpace=wrap;html=1;" vertex="1" parent="hulPOUBpisHzdd72-WVo-54">
          <mxGeometry y="60" width="140" height="30" as="geometry" />
        </mxCell>
        <mxCell id="hulPOUBpisHzdd72-WVo-56" value="DobBN" style="text;strokeColor=none;fillColor=none;align=left;verticalAlign=middle;spacingLeft=4;spacingRight=4;overflow=hidden;points=[[0,0.5],[1,0.5]];portConstraint=eastwest;rotatable=0;whiteSpace=wrap;html=1;" vertex="1" parent="hulPOUBpisHzdd72-WVo-54">
          <mxGeometry y="90" width="140" height="30" as="geometry" />
        </mxCell>
        <mxCell id="hulPOUBpisHzdd72-WVo-57" value="GioiTinhBN" style="text;strokeColor=none;fillColor=none;align=left;verticalAlign=middle;spacingLeft=4;spacingRight=4;overflow=hidden;points=[[0,0.5],[1,0.5]];portConstraint=eastwest;rotatable=0;whiteSpace=wrap;html=1;" vertex="1" parent="hulPOUBpisHzdd72-WVo-54">
          <mxGeometry y="120" width="140" height="30" as="geometry" />
        </mxCell>
        <mxCell id="hulPOUBpisHzdd72-WVo-58" value="TongTienDieuTri" style="text;strokeColor=none;fillColor=none;align=left;verticalAlign=middle;spacingLeft=4;spacingRight=4;overflow=hidden;points=[[0,0.5],[1,0.5]];portConstraint=eastwest;rotatable=0;whiteSpace=wrap;html=1;" vertex="1" parent="hulPOUBpisHzdd72-WVo-54">
          <mxGeometry y="150" width="140" height="30" as="geometry" />
        </mxCell>
        <mxCell id="hulPOUBpisHzdd72-WVo-59" value="TongTienDaThanhToan" style="text;strokeColor=none;fillColor=none;align=left;verticalAlign=middle;spacingLeft=4;spacingRight=4;overflow=hidden;points=[[0,0.5],[1,0.5]];portConstraint=eastwest;rotatable=0;whiteSpace=wrap;html=1;" vertex="1" parent="hulPOUBpisHzdd72-WVo-54">
          <mxGeometry y="180" width="140" height="30" as="geometry" />
        </mxCell>
        <mxCell id="hulPOUBpisHzdd72-WVo-60" value="TongQuan" style="text;strokeColor=none;fillColor=none;align=left;verticalAlign=middle;spacingLeft=4;spacingRight=4;overflow=hidden;points=[[0,0.5],[1,0.5]];portConstraint=eastwest;rotatable=0;whiteSpace=wrap;html=1;" vertex="1" parent="hulPOUBpisHzdd72-WVo-54">
          <mxGeometry y="210" width="140" height="30" as="geometry" />
        </mxCell>
        <mxCell id="hulPOUBpisHzdd72-WVo-61" value="ChongChiDinhThuoc" style="text;strokeColor=none;fillColor=none;align=left;verticalAlign=middle;spacingLeft=4;spacingRight=4;overflow=hidden;points=[[0,0.5],[1,0.5]];portConstraint=eastwest;rotatable=0;whiteSpace=wrap;html=1;" vertex="1" parent="hulPOUBpisHzdd72-WVo-54">
          <mxGeometry y="240" width="140" height="30" as="geometry" />
        </mxCell>
        <mxCell id="hulPOUBpisHzdd72-WVo-62" value="TinhTrangDiUng" style="text;strokeColor=none;fillColor=none;align=left;verticalAlign=middle;spacingLeft=4;spacingRight=4;overflow=hidden;points=[[0,0.5],[1,0.5]];portConstraint=eastwest;rotatable=0;whiteSpace=wrap;html=1;" vertex="1" parent="hulPOUBpisHzdd72-WVo-54">
          <mxGeometry y="270" width="140" height="30" as="geometry" />
        </mxCell>
        <mxCell id="hulPOUBpisHzdd72-WVo-64" value="KEHOACHDIEUTRI" style="swimlane;fontStyle=0;childLayout=stackLayout;horizontal=1;startSize=30;horizontalStack=0;resizeParent=1;resizeParentMax=0;resizeLast=0;collapsible=1;marginBottom=0;whiteSpace=wrap;html=1;" vertex="1" parent="1">
          <mxGeometry x="300" y="1220" width="140" height="240" as="geometry" />
        </mxCell>
        <mxCell id="hulPOUBpisHzdd72-WVo-65" value="&lt;u&gt;ID_DT&lt;/u&gt;" style="text;strokeColor=none;fillColor=none;align=left;verticalAlign=middle;spacingLeft=4;spacingRight=4;overflow=hidden;points=[[0,0.5],[1,0.5]];portConstraint=eastwest;rotatable=0;whiteSpace=wrap;html=1;" vertex="1" parent="hulPOUBpisHzdd72-WVo-64">
          <mxGeometry y="30" width="140" height="30" as="geometry" />
        </mxCell>
        <mxCell id="hulPOUBpisHzdd72-WVo-66" value="NgayDieuTri" style="text;strokeColor=none;fillColor=none;align=left;verticalAlign=middle;spacingLeft=4;spacingRight=4;overflow=hidden;points=[[0,0.5],[1,0.5]];portConstraint=eastwest;rotatable=0;whiteSpace=wrap;html=1;" vertex="1" parent="hulPOUBpisHzdd72-WVo-64">
          <mxGeometry y="60" width="140" height="30" as="geometry" />
        </mxCell>
        <mxCell id="hulPOUBpisHzdd72-WVo-72" value="MoTa" style="text;strokeColor=none;fillColor=none;align=left;verticalAlign=middle;spacingLeft=4;spacingRight=4;overflow=hidden;points=[[0,0.5],[1,0.5]];portConstraint=eastwest;rotatable=0;whiteSpace=wrap;html=1;" vertex="1" parent="hulPOUBpisHzdd72-WVo-64">
          <mxGeometry y="90" width="140" height="30" as="geometry" />
        </mxCell>
        <mxCell id="hulPOUBpisHzdd72-WVo-73" value="TrangThaiDieuTri" style="text;strokeColor=none;fillColor=none;align=left;verticalAlign=middle;spacingLeft=4;spacingRight=4;overflow=hidden;points=[[0,0.5],[1,0.5]];portConstraint=eastwest;rotatable=0;whiteSpace=wrap;html=1;" vertex="1" parent="hulPOUBpisHzdd72-WVo-64">
          <mxGeometry y="120" width="140" height="30" as="geometry" />
        </mxCell>
        <mxCell id="hulPOUBpisHzdd72-WVo-92" value="GhiChu" style="text;strokeColor=none;fillColor=none;align=left;verticalAlign=middle;spacingLeft=4;spacingRight=4;overflow=hidden;points=[[0,0.5],[1,0.5]];portConstraint=eastwest;rotatable=0;whiteSpace=wrap;html=1;" vertex="1" parent="hulPOUBpisHzdd72-WVo-64">
          <mxGeometry y="150" width="140" height="30" as="geometry" />
        </mxCell>
        <mxCell id="hulPOUBpisHzdd72-WVo-102" value="TìnhTrang" style="text;strokeColor=none;fillColor=none;align=left;verticalAlign=middle;spacingLeft=4;spacingRight=4;overflow=hidden;points=[[0,0.5],[1,0.5]];portConstraint=eastwest;rotatable=0;whiteSpace=wrap;html=1;" vertex="1" parent="hulPOUBpisHzdd72-WVo-64">
          <mxGeometry y="180" width="140" height="30" as="geometry" />
        </mxCell>
        <mxCell id="hulPOUBpisHzdd72-WVo-103" value="SoThuTu" style="text;strokeColor=none;fillColor=none;align=left;verticalAlign=middle;spacingLeft=4;spacingRight=4;overflow=hidden;points=[[0,0.5],[1,0.5]];portConstraint=eastwest;rotatable=0;whiteSpace=wrap;html=1;" vertex="1" parent="hulPOUBpisHzdd72-WVo-64">
          <mxGeometry y="210" width="140" height="30" as="geometry" />
        </mxCell>
        <mxCell id="hulPOUBpisHzdd72-WVo-68" value="THANHTOAN" style="swimlane;fontStyle=0;childLayout=stackLayout;horizontal=1;startSize=30;horizontalStack=0;resizeParent=1;resizeParentMax=0;resizeLast=0;collapsible=1;marginBottom=0;whiteSpace=wrap;html=1;" vertex="1" parent="1">
          <mxGeometry x="40" y="1417" width="140" height="270" as="geometry" />
        </mxCell>
        <mxCell id="hulPOUBpisHzdd72-WVo-69" value="&lt;u&gt;ID_ThanhToan&lt;/u&gt;" style="text;strokeColor=none;fillColor=none;align=left;verticalAlign=middle;spacingLeft=4;spacingRight=4;overflow=hidden;points=[[0,0.5],[1,0.5]];portConstraint=eastwest;rotatable=0;whiteSpace=wrap;html=1;" vertex="1" parent="hulPOUBpisHzdd72-WVo-68">
          <mxGeometry y="30" width="140" height="30" as="geometry" />
        </mxCell>
        <mxCell id="hulPOUBpisHzdd72-WVo-70" value="TongTien" style="text;strokeColor=none;fillColor=none;align=left;verticalAlign=middle;spacingLeft=4;spacingRight=4;overflow=hidden;points=[[0,0.5],[1,0.5]];portConstraint=eastwest;rotatable=0;whiteSpace=wrap;html=1;" vertex="1" parent="hulPOUBpisHzdd72-WVo-68">
          <mxGeometry y="60" width="140" height="30" as="geometry" />
        </mxCell>
        <mxCell id="hulPOUBpisHzdd72-WVo-71" value="NgayThucHien" style="text;strokeColor=none;fillColor=none;align=left;verticalAlign=middle;spacingLeft=4;spacingRight=4;overflow=hidden;points=[[0,0.5],[1,0.5]];portConstraint=eastwest;rotatable=0;whiteSpace=wrap;html=1;" vertex="1" parent="hulPOUBpisHzdd72-WVo-68">
          <mxGeometry y="90" width="140" height="30" as="geometry" />
        </mxCell>
        <mxCell id="hulPOUBpisHzdd72-WVo-96" value="NguoiThucHien" style="text;strokeColor=none;fillColor=none;align=left;verticalAlign=middle;spacingLeft=4;spacingRight=4;overflow=hidden;points=[[0,0.5],[1,0.5]];portConstraint=eastwest;rotatable=0;whiteSpace=wrap;html=1;" vertex="1" parent="hulPOUBpisHzdd72-WVo-68">
          <mxGeometry y="120" width="140" height="30" as="geometry" />
        </mxCell>
        <mxCell id="hulPOUBpisHzdd72-WVo-97" value="TienNhan" style="text;strokeColor=none;fillColor=none;align=left;verticalAlign=middle;spacingLeft=4;spacingRight=4;overflow=hidden;points=[[0,0.5],[1,0.5]];portConstraint=eastwest;rotatable=0;whiteSpace=wrap;html=1;" vertex="1" parent="hulPOUBpisHzdd72-WVo-68">
          <mxGeometry y="150" width="140" height="30" as="geometry" />
        </mxCell>
        <mxCell id="hulPOUBpisHzdd72-WVo-98" value="TienThoi" style="text;strokeColor=none;fillColor=none;align=left;verticalAlign=middle;spacingLeft=4;spacingRight=4;overflow=hidden;points=[[0,0.5],[1,0.5]];portConstraint=eastwest;rotatable=0;whiteSpace=wrap;html=1;" vertex="1" parent="hulPOUBpisHzdd72-WVo-68">
          <mxGeometry y="180" width="140" height="30" as="geometry" />
        </mxCell>
        <mxCell id="hulPOUBpisHzdd72-WVo-99" value="LoaiThanhToan" style="text;strokeColor=none;fillColor=none;align=left;verticalAlign=middle;spacingLeft=4;spacingRight=4;overflow=hidden;points=[[0,0.5],[1,0.5]];portConstraint=eastwest;rotatable=0;whiteSpace=wrap;html=1;" vertex="1" parent="hulPOUBpisHzdd72-WVo-68">
          <mxGeometry y="210" width="140" height="30" as="geometry" />
        </mxCell>
        <mxCell id="hulPOUBpisHzdd72-WVo-100" value="GhiChu" style="text;strokeColor=none;fillColor=none;align=left;verticalAlign=middle;spacingLeft=4;spacingRight=4;overflow=hidden;points=[[0,0.5],[1,0.5]];portConstraint=eastwest;rotatable=0;whiteSpace=wrap;html=1;" vertex="1" parent="hulPOUBpisHzdd72-WVo-68">
          <mxGeometry y="240" width="140" height="30" as="geometry" />
        </mxCell>
        <mxCell id="hulPOUBpisHzdd72-WVo-75" value="" style="edgeStyle=entityRelationEdgeStyle;fontSize=12;html=1;endArrow=ERoneToMany;startArrow=ERzeroToMany;rounded=0;entryX=1;entryY=0.5;entryDx=0;entryDy=0;exitX=-0.004;exitY=0.107;exitDx=0;exitDy=0;exitPerimeter=0;" edge="1" parent="1" source="hulPOUBpisHzdd72-WVo-64" target="hulPOUBpisHzdd72-WVo-24">
          <mxGeometry width="100" height="100" relative="1" as="geometry">
            <mxPoint x="-40" y="1390" as="sourcePoint" />
            <mxPoint x="60" y="1290" as="targetPoint" />
          </mxGeometry>
        </mxCell>
        <mxCell id="hulPOUBpisHzdd72-WVo-76" value="Bao gồm" style="text;html=1;strokeColor=none;fillColor=none;align=center;verticalAlign=middle;whiteSpace=wrap;rounded=0;" vertex="1" parent="1">
          <mxGeometry x="230" y="1155" width="60" height="30" as="geometry" />
        </mxCell>
        <mxCell id="hulPOUBpisHzdd72-WVo-78" value="" style="edgeStyle=entityRelationEdgeStyle;fontSize=12;html=1;endArrow=ERmandOne;startArrow=ERmandOne;rounded=0;entryX=-0.006;entryY=0.06;entryDx=0;entryDy=0;entryPerimeter=0;exitX=1;exitY=0.5;exitDx=0;exitDy=0;" edge="1" parent="1" source="hulPOUBpisHzdd72-WVo-72" target="hulPOUBpisHzdd72-WVo-54">
          <mxGeometry width="100" height="100" relative="1" as="geometry">
            <mxPoint x="90" y="1350" as="sourcePoint" />
            <mxPoint x="190" y="1250" as="targetPoint" />
          </mxGeometry>
        </mxCell>
        <mxCell id="hulPOUBpisHzdd72-WVo-79" value="Lên lịch" style="text;html=1;strokeColor=none;fillColor=none;align=center;verticalAlign=middle;whiteSpace=wrap;rounded=0;" vertex="1" parent="1">
          <mxGeometry x="470" y="1260" width="60" height="30" as="geometry" />
        </mxCell>
        <mxCell id="hulPOUBpisHzdd72-WVo-82" value="bao gồm" style="text;html=1;strokeColor=none;fillColor=none;align=center;verticalAlign=middle;whiteSpace=wrap;rounded=0;" vertex="1" parent="1">
          <mxGeometry x="460" y="1010" width="60" height="30" as="geometry" />
        </mxCell>
        <mxCell id="hulPOUBpisHzdd72-WVo-84" value="Khám" style="text;html=1;strokeColor=none;fillColor=none;align=center;verticalAlign=middle;whiteSpace=wrap;rounded=0;" vertex="1" parent="1">
          <mxGeometry x="-20" y="1260" width="60" height="30" as="geometry" />
        </mxCell>
        <mxCell id="hulPOUBpisHzdd72-WVo-88" value="" style="edgeStyle=elbowEdgeStyle;fontSize=12;html=1;endArrow=ERzeroToMany;startArrow=ERmandOne;rounded=0;entryX=0;entryY=0.5;entryDx=0;entryDy=0;exitX=0;exitY=0.5;exitDx=0;exitDy=0;" edge="1" parent="1" target="hulPOUBpisHzdd72-WVo-66">
          <mxGeometry width="100" height="100" relative="1" as="geometry">
            <mxPoint x="-220" y="885" as="sourcePoint" />
            <mxPoint x="-210" y="1280" as="targetPoint" />
            <Array as="points">
              <mxPoint x="-250" y="1110" />
            </Array>
          </mxGeometry>
        </mxCell>
        <mxCell id="hulPOUBpisHzdd72-WVo-89" value="" style="edgeStyle=elbowEdgeStyle;fontSize=12;html=1;endArrow=ERzeroToMany;startArrow=ERzeroToOne;rounded=0;entryX=-0.005;entryY=0.23;entryDx=0;entryDy=0;entryPerimeter=0;exitX=-0.018;exitY=0;exitDx=0;exitDy=0;exitPerimeter=0;" edge="1" parent="1" target="hulPOUBpisHzdd72-WVo-73">
          <mxGeometry width="100" height="100" relative="1" as="geometry">
            <mxPoint x="-222.51999999999998" y="870" as="sourcePoint" />
            <mxPoint x="-120" y="1340" as="targetPoint" />
            <Array as="points">
              <mxPoint x="-280" y="1130" />
            </Array>
          </mxGeometry>
        </mxCell>
        <mxCell id="hulPOUBpisHzdd72-WVo-90" value="Trợ khám" style="text;html=1;strokeColor=none;fillColor=none;align=center;verticalAlign=middle;whiteSpace=wrap;rounded=0;" vertex="1" parent="1">
          <mxGeometry x="-20" y="1320" width="60" height="30" as="geometry" />
        </mxCell>
        <mxCell id="hulPOUBpisHzdd72-WVo-93" value="" style="edgeStyle=elbowEdgeStyle;fontSize=12;html=1;endArrow=ERzeroToMany;startArrow=ERmandOne;rounded=0;entryX=1.021;entryY=0.105;entryDx=0;entryDy=0;entryPerimeter=0;" edge="1" parent="1" target="hulPOUBpisHzdd72-WVo-64">
          <mxGeometry width="100" height="100" relative="1" as="geometry">
            <mxPoint x="440" y="900" as="sourcePoint" />
            <mxPoint x="610" y="1040" as="targetPoint" />
            <Array as="points">
              <mxPoint x="470" y="1070" />
            </Array>
          </mxGeometry>
        </mxCell>
        <mxCell id="hulPOUBpisHzdd72-WVo-95" value="Chi trả" style="text;html=1;strokeColor=none;fillColor=none;align=center;verticalAlign=middle;whiteSpace=wrap;rounded=0;" vertex="1" parent="1">
          <mxGeometry x="465" y="1460" width="60" height="30" as="geometry" />
        </mxCell>
        <mxCell id="hulPOUBpisHzdd72-WVo-101" value="" style="edgeStyle=entityRelationEdgeStyle;fontSize=12;html=1;endArrow=ERzeroToMany;startArrow=ERmandOne;rounded=0;entryX=1.016;entryY=1.121;entryDx=0;entryDy=0;entryPerimeter=0;exitX=0;exitY=0.5;exitDx=0;exitDy=0;" edge="1" parent="1" source="hulPOUBpisHzdd72-WVo-61" target="hulPOUBpisHzdd72-WVo-70">
          <mxGeometry width="100" height="100" relative="1" as="geometry">
            <mxPoint x="230" y="1570" as="sourcePoint" />
            <mxPoint x="330" y="1470" as="targetPoint" />
          </mxGeometry>
        </mxCell>
        <mxCell id="hulPOUBpisHzdd72-WVo-104" value="" style="edgeStyle=entityRelationEdgeStyle;fontSize=12;html=1;endArrow=ERzeroToMany;endFill=1;startArrow=ERzeroToMany;rounded=0;entryX=1.008;entryY=0.199;entryDx=0;entryDy=0;entryPerimeter=0;exitX=0;exitY=0.5;exitDx=0;exitDy=0;" edge="1" parent="1" source="hulPOUBpisHzdd72-WVo-65" target="hulPOUBpisHzdd72-WVo-42">
          <mxGeometry width="100" height="100" relative="1" as="geometry">
            <mxPoint x="-160" y="1380" as="sourcePoint" />
            <mxPoint x="-60" y="1280" as="targetPoint" />
          </mxGeometry>
        </mxCell>
        <mxCell id="hulPOUBpisHzdd72-WVo-105" value="Sử dụng" style="text;html=1;strokeColor=none;fillColor=none;align=center;verticalAlign=middle;whiteSpace=wrap;rounded=0;" vertex="1" parent="1">
          <mxGeometry x="120" y="1230" width="60" height="30" as="geometry" />
        </mxCell>
        <mxCell id="hulPOUBpisHzdd72-WVo-107" value="" style="edgeStyle=entityRelationEdgeStyle;fontSize=12;html=1;endArrow=ERoneToMany;startArrow=ERmandOne;rounded=0;exitX=0;exitY=0;exitDx=0;exitDy=0;entryX=1;entryY=0.75;entryDx=0;entryDy=0;" edge="1" parent="1" source="hulPOUBpisHzdd72-WVo-5" target="hPIlpmBQcfsdDrHTi6k_-3">
          <mxGeometry width="100" height="100" relative="1" as="geometry">
            <mxPoint x="17" y="530" as="sourcePoint" />
            <mxPoint x="-100" y="544" as="targetPoint" />
          </mxGeometry>
        </mxCell>
        <mxCell id="hulPOUBpisHzdd72-WVo-108" value="bao gồm" style="text;html=1;strokeColor=none;fillColor=none;align=center;verticalAlign=middle;whiteSpace=wrap;rounded=0;" vertex="1" parent="1">
          <mxGeometry x="-60" y="840" width="60" height="30" as="geometry" />
        </mxCell>
      </root>
    </mxGraphModel>
  </diagram>
</mxfile>
